<mxfile host="app.diagrams.net" agent="Mozilla/5.0 (Macintosh; Intel Mac OS X 10_15_7) AppleWebKit/605.1.15 (KHTML, like Gecko) Version/15.6.1 Safari/605.1.15" version="24.7.17">
  <diagram id="R2lEEEUBdFMjLlhIrx00" name="Page-1">
    <mxGraphModel dx="795" dy="539" grid="1" gridSize="10" guides="1" tooltips="1" connect="1" arrows="1" fold="1" page="1" pageScale="1" pageWidth="850" pageHeight="1100" math="0" shadow="0" extFonts="Permanent Marker^https://fonts.googleapis.com/css?family=Permanent+Marker">
      <root>
        <mxCell id="0" />
        <mxCell id="1" parent="0" />
        <mxCell id="cF-gUw_3_0S-GjEwgFrB-20" style="edgeStyle=orthogonalEdgeStyle;rounded=0;orthogonalLoop=1;jettySize=auto;html=1;exitX=0;exitY=0.5;exitDx=0;exitDy=0;entryX=1;entryY=0.5;entryDx=0;entryDy=0;" edge="1" parent="1" source="SvtOf54RBf60w3_c9CGu-33" target="cF-gUw_3_0S-GjEwgFrB-4">
          <mxGeometry relative="1" as="geometry" />
        </mxCell>
        <mxCell id="SvtOf54RBf60w3_c9CGu-33" value="Категория" style="html=1;whiteSpace=wrap;" parent="1" vertex="1">
          <mxGeometry x="370" y="150" width="110" height="50" as="geometry" />
        </mxCell>
        <mxCell id="0h4Iew1tskDNgC4aMu7y-2" value="Читатель" style="rounded=0;whiteSpace=wrap;html=1;" parent="1" vertex="1">
          <mxGeometry x="600" y="410" width="110" height="50" as="geometry" />
        </mxCell>
        <mxCell id="cF-gUw_3_0S-GjEwgFrB-13" style="edgeStyle=orthogonalEdgeStyle;rounded=0;orthogonalLoop=1;jettySize=auto;html=1;entryX=0.5;entryY=0;entryDx=0;entryDy=0;" edge="1" parent="1" source="0h4Iew1tskDNgC4aMu7y-3" target="cF-gUw_3_0S-GjEwgFrB-5">
          <mxGeometry relative="1" as="geometry" />
        </mxCell>
        <mxCell id="0h4Iew1tskDNgC4aMu7y-3" value="Книга" style="rounded=0;whiteSpace=wrap;html=1;" parent="1" vertex="1">
          <mxGeometry x="370" y="280" width="110" height="50" as="geometry" />
        </mxCell>
        <mxCell id="0h4Iew1tskDNgC4aMu7y-5" value="Сотрудник библиотеки" style="rounded=0;whiteSpace=wrap;html=1;" parent="1" vertex="1">
          <mxGeometry x="140" y="280" width="110" height="50" as="geometry" />
        </mxCell>
        <mxCell id="cF-gUw_3_0S-GjEwgFrB-14" style="edgeStyle=orthogonalEdgeStyle;rounded=0;orthogonalLoop=1;jettySize=auto;html=1;exitX=0;exitY=0.5;exitDx=0;exitDy=0;entryX=1;entryY=0.5;entryDx=0;entryDy=0;" edge="1" parent="1" source="0h4Iew1tskDNgC4aMu7y-6" target="0h4Iew1tskDNgC4aMu7y-3">
          <mxGeometry relative="1" as="geometry" />
        </mxCell>
        <mxCell id="0h4Iew1tskDNgC4aMu7y-6" value="Транзакция" style="rounded=0;whiteSpace=wrap;html=1;" parent="1" vertex="1">
          <mxGeometry x="600" y="280" width="110" height="50" as="geometry" />
        </mxCell>
        <mxCell id="cF-gUw_3_0S-GjEwgFrB-18" style="edgeStyle=orthogonalEdgeStyle;rounded=0;orthogonalLoop=1;jettySize=auto;html=1;exitX=0;exitY=0.5;exitDx=0;exitDy=0;entryX=1;entryY=0.25;entryDx=0;entryDy=0;" edge="1" parent="1" source="cF-gUw_3_0S-GjEwgFrB-3" target="0h4Iew1tskDNgC4aMu7y-3">
          <mxGeometry relative="1" as="geometry" />
        </mxCell>
        <mxCell id="cF-gUw_3_0S-GjEwgFrB-19" style="edgeStyle=orthogonalEdgeStyle;rounded=0;orthogonalLoop=1;jettySize=auto;html=1;exitX=1;exitY=0.5;exitDx=0;exitDy=0;entryX=1;entryY=0.25;entryDx=0;entryDy=0;" edge="1" parent="1" source="cF-gUw_3_0S-GjEwgFrB-3" target="0h4Iew1tskDNgC4aMu7y-2">
          <mxGeometry relative="1" as="geometry" />
        </mxCell>
        <mxCell id="cF-gUw_3_0S-GjEwgFrB-3" value="Резервирование" style="html=1;whiteSpace=wrap;" vertex="1" parent="1">
          <mxGeometry x="600" y="150" width="110" height="50" as="geometry" />
        </mxCell>
        <mxCell id="cF-gUw_3_0S-GjEwgFrB-4" value="Читальный зал" style="html=1;whiteSpace=wrap;" vertex="1" parent="1">
          <mxGeometry x="140" y="150" width="110" height="50" as="geometry" />
        </mxCell>
        <mxCell id="cF-gUw_3_0S-GjEwgFrB-5" value="Автор" style="html=1;whiteSpace=wrap;" vertex="1" parent="1">
          <mxGeometry x="370" y="410" width="110" height="50" as="geometry" />
        </mxCell>
        <mxCell id="cF-gUw_3_0S-GjEwgFrB-9" value="+ руководитель" style="endArrow=block;endFill=1;html=1;edgeStyle=orthogonalEdgeStyle;align=left;verticalAlign=top;rounded=0;" edge="1" parent="1">
          <mxGeometry x="1" y="-10" relative="1" as="geometry">
            <mxPoint x="140" y="310" as="sourcePoint" />
            <mxPoint x="150" y="330" as="targetPoint" />
            <Array as="points">
              <mxPoint x="110" y="310" />
              <mxPoint x="110" y="350" />
              <mxPoint x="150" y="350" />
            </Array>
            <mxPoint as="offset" />
          </mxGeometry>
        </mxCell>
        <mxCell id="cF-gUw_3_0S-GjEwgFrB-12" value="1" style="endArrow=open;html=1;endSize=12;startArrow=diamondThin;startSize=14;startFill=0;edgeStyle=orthogonalEdgeStyle;align=left;verticalAlign=bottom;rounded=0;entryX=0.5;entryY=0;entryDx=0;entryDy=0;" edge="1" parent="1" source="SvtOf54RBf60w3_c9CGu-33" target="0h4Iew1tskDNgC4aMu7y-3">
          <mxGeometry x="-0.25" y="5" relative="1" as="geometry">
            <mxPoint x="320" y="310" as="sourcePoint" />
            <mxPoint x="480" y="310" as="targetPoint" />
            <mxPoint as="offset" />
          </mxGeometry>
        </mxCell>
        <mxCell id="cF-gUw_3_0S-GjEwgFrB-24" value="Use" style="endArrow=open;endSize=12;dashed=1;html=1;rounded=0;exitX=0.5;exitY=0;exitDx=0;exitDy=0;entryX=0.5;entryY=1;entryDx=0;entryDy=0;" edge="1" parent="1" source="0h4Iew1tskDNgC4aMu7y-6" target="cF-gUw_3_0S-GjEwgFrB-3">
          <mxGeometry width="160" relative="1" as="geometry">
            <mxPoint x="340" y="339" as="sourcePoint" />
            <mxPoint x="500" y="339" as="targetPoint" />
          </mxGeometry>
        </mxCell>
        <mxCell id="cF-gUw_3_0S-GjEwgFrB-25" value="1" style="endArrow=open;html=1;endSize=12;startArrow=diamondThin;startSize=14;startFill=1;edgeStyle=orthogonalEdgeStyle;align=left;verticalAlign=bottom;rounded=0;exitX=0.5;exitY=0;exitDx=0;exitDy=0;entryX=0.5;entryY=1;entryDx=0;entryDy=0;" edge="1" parent="1" source="0h4Iew1tskDNgC4aMu7y-2" target="0h4Iew1tskDNgC4aMu7y-6">
          <mxGeometry x="-1" y="-15" relative="1" as="geometry">
            <mxPoint x="340" y="300" as="sourcePoint" />
            <mxPoint x="500" y="300" as="targetPoint" />
            <mxPoint as="offset" />
          </mxGeometry>
        </mxCell>
        <mxCell id="cF-gUw_3_0S-GjEwgFrB-26" value="1" style="endArrow=open;html=1;endSize=12;startArrow=diamondThin;startSize=14;startFill=0;edgeStyle=orthogonalEdgeStyle;align=left;verticalAlign=bottom;rounded=0;exitX=0.5;exitY=1;exitDx=0;exitDy=0;entryX=0.5;entryY=0;entryDx=0;entryDy=0;" edge="1" parent="1" source="cF-gUw_3_0S-GjEwgFrB-4" target="0h4Iew1tskDNgC4aMu7y-5">
          <mxGeometry x="-0.5" y="5" relative="1" as="geometry">
            <mxPoint x="340" y="300" as="sourcePoint" />
            <mxPoint x="500" y="300" as="targetPoint" />
            <mxPoint as="offset" />
          </mxGeometry>
        </mxCell>
      </root>
    </mxGraphModel>
  </diagram>
</mxfile>
